<?xml version="1.0" standalone="no"?>
<!DOCTYPE svg PUBLIC "-//W3C//DTD SVG 1.1//EN" "http://www.w3.org/Graphics/SVG/1.1/DTD/svg11.dtd" >
<svg xmlns="http://www.w3.org/2000/svg">
<metadata>Generated by IcoMoon</metadata>
<defs>
<font id="icomoon" horiz-adv-x="1024">
<font-face units-per-em="1024" ascent="960" descent="-64" />
<missing-glyph horiz-adv-x="1024" />
<glyph unicode="&#x20;" horiz-adv-x="512" d="" />
<glyph unicode="&#xe600;" glyph-name="uniE600" d="M16.312-12.186c7.812-7.802 18.72-18.308 29.092-28.294l13.578-13.106c8.080-7.854 16.436-9.504 22.026-9.504 12.76 0 21.534 8.14 23.162 9.77l271.822 265.584c15.626-12.636 35.092-23.942 41.656-27.638 58.418-30.208 123.72-46.070 189.256-46.070v0c109.322 0 212.092 42.558 289.362 119.838 77.496 77.476 120.166 180.51 120.166 290.088 0 109.588-42.68 212.614-120.166 290.1-77.496 77.486-180.5 120.156-290.068 120.156s-212.592-42.67-290.080-120.166c-138.67-138.66-161.884-351.786-57.036-502.476h-0.010l0.256-0.348c2.826-4.066 5.734-8.048 8.746-12.012l0.452-0.614c3.686-5.058 8.97-12.256 16.516-22.508l-267.642-269.086c-8.91-9.41-16.272-28.518-1.086-43.716zM907.602 548.834c0-165.13-134.36-299.5-299.51-299.5s-299.5 134.37-299.5 299.5c0 165.152 134.348 299.51 299.5 299.51s299.51-134.36 299.51-299.51z" />
<glyph unicode="&#xe601;" glyph-name="uniE601" horiz-adv-x="1860" d="M111.524-21.010c333.456 214.194 711.456 60.116 899.74-42.99-260.822 102.986-643.164 127.148-899.74 42.99zM696.924 960c160.24 0 298.134-94.47 359.706-230.060h-125.352c-55.312 68.244-140.394 111.984-235.834 111.984-93.838 0-177.682-42.26-233.068-108.612 2.984 2.378 5.992 4.73 9.17 6.986 131.004 93.5 305.704-9.558 305.704-9.558s-166.014 47.986-278.264-30.69c-112.228-78.7-94.178-236.246-94.178-236.246s-0.752 2.086-1.868 5.87c0.462-1.82 0.946-3.616 1.456-5.434-26.928 19.822-59.56 32.776-95.076 36.172-4.246 22.852-6.452 46.36-6.452 70.404 0 214.97 176.42 389.182 394.060 389.182v0zM192.99 69.892v33.65c104.222 76.928 296 177.052 526.592 104.78 350.438-109.802 573.462-259.196 844.256-191.948 270.818 67.226 294.712 215.14 294.712 215.14s-47.792-208.904-314.632-254.756c-266.79-45.852-512.594 5.556-825.188 122.076-211.014 78.676-415.238 17.662-525.744-28.942v0zM192.99 137.456c19.384 13.1 39.18 25.448 57.302 34.862-8.854 5.628-17.128 12.058-24.6 19.408-13.902 13.682-24.576 28.918-32.704 44.664v-72.344l2.134-2.11c3.468-3.274 7.134-6.356 10.894-9.22-4.44 2.11-8.782 4.39-13.028 6.818v-22.076zM192.99 474.82v123.872c25.474 8.71 52.572 13.974 80.714 15.236-1.456-14.144-2.182-28.506-2.182-43.038 0-24.406 2.11-48.326 6.162-71.616-30.786-1.31-59.606-10.044-84.692-24.454zM192.99 598.692v-123.872c-54.926-31.588-91.85-90.344-91.85-157.642 0-67.274 36.924-126.032 91.85-157.62v-22.1c-22.126-14.97-43.716-30.932-61.572-44.64-79.064 50.438-131.418 138.236-131.418 238.090-0.024 123.994 80.642 229.356 192.99 267.784v0zM192.99 236.39c-35.128 68.026-23.022 145.222-23.022 145.222s-59.486-136.366 23.022-217.566v72.344zM192.99 103.542c-54.174-40.004-84.716-73.75-84.716-73.75 0-1.456 31.49 17.638 84.716 40.102v33.65zM1074.34 156.818c0 0 167.25-85.64 324.554-71.688s205.096 69.674 205.096 69.674-57.74-106.528-209.050-112.496c-151.36-5.968-320.598 110.53-320.598 114.508zM946.076 697.796h140.588v-140.588h-140.588v140.588zM1504.424 308.274h108.734v-108.734h-108.734v108.734zM1115.51 826.616h187.482v-187.458h-187.482v187.458zM1659.788 502.21h187.508v-187.46h-187.508v187.46zM1320.97 624.748h104.512v-104.49h-104.512v104.49zM1390.864 418.876h104.512v-104.49h-104.512v104.49zM1170.846 408.468h104.538v-104.514h-104.538v104.514zM1537.25 621.134h104.512v-104.514h-104.512v104.514z" />
<glyph unicode="&#xe602;" glyph-name="uniE602" horiz-adv-x="1808" d="M903.956-64c-41.528 0-83.054 15.186-115.614 45.522l-734.45 685.042c-68.446 63.854-72.206 171.098-8.352 239.544 63.854 68.428 171.098 72.206 239.544 8.352l618.856-577.22 618.838 577.22c68.464 63.854 175.69 60.112 239.562-8.352 63.854-68.446 60.112-175.69-8.352-239.544l-734.414-685.042c-32.542-30.336-74.068-45.522-115.614-45.522z" />
<glyph unicode="&#xe603;" glyph-name="uniE603" d="M876.8 809.6c-201.6 201.6-524.8 198.4-726.4 0s-201.6-524.8 0-723.2c201.6-198.4 524.8-198.4 723.2 0 201.6 198.4 201.6 524.8 3.2 723.2zM790.4 480l-233.6-233.6c-9.6-9.6-22.4-16-35.2-16l-198.4-22.4c-25.6-3.2-48 19.2-44.8 44.8l16 208c0 12.8 6.4 28.8 16 38.4l233.6 227.2c16 16 41.6 16 57.6 0l192-192c12.8-12.8 12.8-38.4-3.2-54.4zM480 358.4c0-31.812-25.788-57.6-57.6-57.6s-57.6 25.788-57.6 57.6c0 31.812 25.788 57.6 57.6 57.6s57.6-25.788 57.6-57.6z" />
<glyph unicode="&#xe604;" glyph-name="uniE604" d="M512 920.092c260.316 0 472.108-211.778 472.108-472.108s-211.778-472.092-472.108-472.092-472.094 211.778-472.094 472.108 211.778 472.094 472.094 472.094zM512 960c-282.77 0-512-229.23-512-512s229.23-512 512-512 512 229.23 512 512-229.23 512-512 512v0zM766.202 571.596c-17.218-7.652-35.768-12.816-55.208-15.142 19.85 11.894 35.078 30.72 42.262 53.176-18.578-11.030-39.13-19.016-61.030-23.332-17.524 18.682-42.51 30.354-70.158 30.354-53.072 0-96.11-43.038-96.11-96.124 0-7.52 0.848-14.848 2.486-21.9-79.888 4.024-150.718 42.276-198.13 100.426-8.264-14.19-13.020-30.706-13.020-48.334 0-33.354 16.968-62.772 42.76-80.004-15.754 0.512-30.574 4.826-43.534 12.024 0-0.394 0-0.806 0-1.214 0-46.564 33.134-85.402 77.106-94.252-8.074-2.164-16.56-3.336-25.336-3.336-6.202 0-12.214 0.6-18.082 1.726 12.244-38.182 47.734-65.976 89.79-66.75-32.9-25.776-74.328-41.15-119.368-41.15-7.752 0-15.404 0.452-22.924 1.346 42.556-27.282 93.068-43.184 147.338-43.184 176.8 0 273.48 146.462 273.48 273.48 0 4.168-0.088 8.324-0.264 12.448 18.754 13.518 35.064 30.458 47.938 49.738z" />
<glyph unicode="&#xe605;" glyph-name="uniE605" d="M345.6 265.6c-6.4-6.4-6.4-16 0-25.6 3.2-3.2 9.6-12.8 22.4-12.8h294.4c12.8 0 19.2 9.6 22.4 12.8 3.2 9.6 3.2 16 0 25.6l-86.4 118.4h-172.8l-80-118.4zM512 960c-281.6 0-512-230.4-512-512 0-284.8 227.2-512 512-512 281.6 0 512 230.4 512 512s-230.4 512-512 512zM723.2 217.6c-12.8-22.4-38.4-38.4-64-38.4h-294.4c-25.6 0-51.2 16-64 38.4s-9.6 51.2 3.2 73.6l131.2 188.8v134.4h-3.2c-16 0-28.8 12.8-28.8 28.8v0c0 16 12.8 28.8 28.8 28.8h156.8c16 0 28.8-12.8 28.8-28.8v0c0-16-12.8-28.8-28.8-28.8h-3.2v-134.4l131.2-188.8c16-19.2 19.2-48 6.4-73.6z" />
<glyph unicode="&#xe606;" glyph-name="uniE606" d="M512 960c-281.6 0-512-230.4-512-512 0-284.8 227.2-512 512-512 281.6 0 512 230.4 512 512s-230.4 512-512 512zM729.6 358.4c-57.6-118.4-198.4-166.4-316.8-108.8l-147.2-41.6 38.4 150.4c-32 64-32 140.8 0 208 57.6 118.4 198.4 166.4 316.8 108.8 118.4-54.4 166.4-198.4 108.8-316.8zM502.4 396.8c-19.2 0-32-12.8-32-28.8v0c0-16 12.8-28.8 32-28.8s32 12.8 32 28.8v0c0 12.8-12.8 28.8-32 28.8zM512 588.8c-32 0-54.4-9.6-73.6-25.6-6.4-6.4-9.6-12.8-9.6-19.2 0-12.8 12.8-25.6 25.6-25.6 6.4 0 12.8 3.2 16 6.4 12.8 9.6 25.6 12.8 41.6 12.8 19.2 0 32-9.6 32-25.6v0c0-16-12.8-25.6-44.8-32-12.8 0-19.2-9.6-16-22.4l3.2-25.6c0-9.6 9.6-16 19.2-16h3.2c9.6 0 19.2 9.6 19.2 16v6.4c38.4 6.4 70.4 25.6 70.4 70.4v0c-3.2 51.2-35.2 80-86.4 80z" />
<glyph unicode="&#xe607;" glyph-name="uniE607" d="M512 960c-281.6 0-512-230.4-512-512 0-284.8 227.2-512 512-512 281.6 0 512 230.4 512 512s-230.4 512-512 512zM723.2 201.6c0-9.6-6.4-16-16-16h-390.4c-9.6 0-16 6.4-16 16v470.4c0 9.6 6.4 16 16 16h387.2c9.6 0 16-6.4 16-16v-470.4zM387.2 572.8h246.4v-32h-246.4v32zM387.2 492.8h246.4v-32h-246.4v32zM387.2 412.8h246.4v-32h-246.4v32zM387.2 329.6h246.4v-32h-246.4v32z" />
<glyph unicode="&#xe608;" glyph-name="uniE608" horiz-adv-x="1018" d="M548.056 498.478v0c0 2.060-2.060 0 0 0v0zM943.646 960h-869.472c-41.208 0-76.234-32.966-76.234-74.174v-877.714c0-41.206 32.966-74.172 76.234-74.172h867.412c41.206 0 76.232 32.966 76.232 74.174v879.774c0 39.148-32.966 72.112-74.174 72.112zM309.054 102.89h-154.526v463.582h154.526v-463.582zM230.76 628.282v0c-53.568 0-86.534 35.026-86.534 80.354s35.026 80.354 86.534 80.354c53.568 0 84.474-35.026 86.534-80.354s-32.966-80.354-86.534-80.354zM863.292 102.89h-154.526v247.244c0 61.812-22.664 105.078-78.294 105.078-43.268 0-67.992-28.846-78.294-55.63-4.12-10.302-4.12-22.664-4.12-37.086v-257.544h-154.526c0 0 2.060 420.314 0 463.582h154.526v-67.992c20.604 30.906 57.69 76.234 138.044 76.234 100.958 0 177.192-65.932 177.192-208.096v-265.786z" />
<glyph unicode="&#xe609;" glyph-name="uniE609" d="M512 920.092c260.316 0 472.108-211.778 472.108-472.108s-211.778-472.092-472.108-472.092-472.094 211.778-472.094 472.108 211.778 472.094 472.094 472.094zM512 960c-282.77 0-512-229.23-512-512s229.23-512 512-512 512 229.23 512 512-229.23 512-512 512v0zM784.778 468.67h-78.512v78.498c0 5.998-4.856 10.854-10.84 10.854h-22.352c-6.012 0-10.884-4.87-10.884-10.854v-78.498h-78.512c-5.982 0-10.854-4.886-10.854-10.884v-22.352c0-5.998 4.886-10.854 10.854-10.854h78.512v-78.54c0-5.998 4.856-10.854 10.884-10.854h22.352c5.982 0 10.84 4.856 10.84 10.854v78.556h78.512c5.982 0 10.854 4.856 10.854 10.854v22.352c0.014 6.012-4.87 10.87-10.854 10.87zM520.924 399.842c-16.516 11.702-31.524 28.848-31.788 34.114 0 9.596 0.862 14.19 22.382 30.94 27.824 21.782 43.154 50.426 43.154 80.678 0 27.428-8.382 51.814-22.644 68.93h11.074c2.282 0 4.534 0.716 6.364 2.048l30.88 22.382c3.832 2.75 5.442 7.652 3.98 12.142-1.476 4.476-5.616 7.534-10.328 7.534h-138.138c-15.11 0-30.472-2.662-45.538-7.842-50.336-17.364-85.534-60.254-85.534-104.288 0-62.392 48.332-109.67 112.932-111.164-1.258-4.944-1.902-9.816-1.902-14.586 0-9.61 2.428-18.726 7.462-27.516-0.584 0-1.156 0-1.77 0-61.586 0-117.176-30.208-138.27-75.192-5.5-11.702-8.294-23.524-8.294-35.196 0-11.352 2.926-22.278 8.632-32.534 13.268-23.728 41.75-42.13 80.238-51.858 19.866-5.018 41.224-7.578 63.386-7.578 19.924 0 38.912 2.576 56.466 7.65 54.754 15.9 90.156 56.202 90.156 102.722-0.014 44.632-14.366 71.358-52.898 98.61zM346.478 297.648c0 32.476 41.252 60.956 88.284 60.956h1.258c10.24-0.132 20.216-1.624 29.622-4.52 3.234-2.224 6.348-4.346 9.334-6.378 21.782-14.848 36.176-24.634 40.17-40.36 0.936-3.964 1.404-7.914 1.404-11.76 0-40.448-30.15-60.928-89.658-60.928-45.084 0-80.414 27.648-80.414 62.99zM389.266 604.482c7.344 8.398 16.968 12.83 27.78 12.83l1.228-0.014c30.53-0.892 59.742-34.918 65.112-75.848 3.012-22.908-2.076-44.456-13.606-57.578-7.372-8.412-16.852-12.844-28.1-12.844 0 0 0 0-0.014 0h-0.498c-29.902 0.922-59.742 36.236-65.084 77.108-3 22.85 1.814 43.388 13.18 56.348z" />
<glyph unicode="&#xe60a;" glyph-name="uniE60A" d="M512 920.092c260.316 0 472.108-211.778 472.108-472.108s-211.778-472.092-472.108-472.092-472.094 211.778-472.094 472.108 211.778 472.094 472.094 472.094zM512 960c-282.77 0-512-229.23-512-512s229.23-512 512-512 512 229.23 512 512-229.23 512-512 512v0zM632.394 539.298h-81.992v53.774c0 20.188 13.384 24.898 22.822 24.898 9.406 0 57.856 0 57.856 0v88.796l-79.682 0.306c-88.46 0-108.588-66.208-108.588-108.588v-59.174h-51.156v-91.486h51.156c0-117.408 0-258.866 0-258.866h107.608c0 0 0 142.864 0 258.866h72.616l9.362 91.472z" />
<glyph unicode="&#xe60b;" glyph-name="uniE60B" d="M1021.77 444.778c0.604 72.936-147.374 75.29-174.784 142.89-27.308 67.64 79.356 167.55 28.266 219.538-51.174 52.048-151.146-54.76-218.288-26.224-67.204 28.516-68.828 174.116-141.682 178.912-64.494 4.294-88.61-117.816-148.332-142.598-61.054-25.41-168.322 43.92-214.098-3.898-45.608-47.652 28.578-141.536 6.586-194.504-22.616-54.196-163.882-95.532-159.338-165.424 4.858-72.79 150.54-73.936 177.826-141.536 27.306-67.64-82.42-168.948-31.35-220.976 51.092-51.946 152.688 44.442 219.872 15.966 67.038-28.538 67.142-167.966 140.056-168.634 72.914-0.646 99.408 130.198 167.008 157.502 67.6 27.348 143.476-62.076 195.42-10.944 52.048 51.132-38.75 162.13-10.318 229.294 28.558 67.224 162.506 57.74 163.152 130.634zM510.906 211.4c-8.214 0-16.322 0.418-24.326 1.23-119.92 12.174-213.492 113.438-213.492 236.548v0.022c0 0 0 0 0 0.022 0 131.364 106.454 237.818 237.818 237.818s237.798-106.454 237.798-237.818c0-131.322-106.432-237.818-237.798-237.818z" />
<glyph unicode="&#xe60c;" glyph-name="uniE60C" d="M848.512 929.86l-336.548-336.548-336.548 336.582c-40.114 40.114-105.164 40.15-145.314 0-40.114-40.114-40.114-105.2 0-145.314l336.548-336.582-336.584-336.548c-40.114-40.15-40.114-105.2 0-145.314 40.186-40.186 105.2-40.15 145.348-0.036l336.548 336.584 336.548-336.548c40.114-40.114 105.2-40.15 145.314-0.036 40.186 40.186 40.114 105.236 0 145.35l-336.548 336.548 336.548 336.548c40.114 40.078 40.186 105.164 0 145.314-40.114 40.15-105.2 40.114-145.314 0z" />
<glyph unicode="&#xe60d;" glyph-name="uniE60D" horiz-adv-x="1050" d="M524.966 960c-289.892 0-524.966-235.020-524.966-524.966 0-231.944 150.42-428.716 359.004-498.14 26.236-4.86 35.868 11.398 35.868 25.254 0 12.51-0.488 53.872-0.714 97.738-146.046-31.756-176.862 61.938-176.862 61.938-23.88 60.67-58.288 76.812-58.288 76.812-47.63 32.582 3.59 31.914 3.59 31.914 52.706-3.702 80.472-54.106 80.472-54.106 46.822-80.246 122.81-57.044 152.766-43.64 4.712 33.922 18.308 57.088 33.33 70.198-116.602 13.266-239.186 58.288-239.186 259.44 0 57.314 20.508 104.146 54.098 140.908-5.45 13.23-23.42 66.616 5.086 138.934 0 0 44.084 14.1 144.394-53.82 41.876 11.632 86.784 17.466 131.398 17.674 44.614-0.21 89.558-6.034 131.51-17.674 100.198 67.92 144.22 53.82 144.22 53.82 28.576-72.31 10.606-125.704 5.154-138.934 33.66-36.764 54.028-83.594 54.028-140.908 0-201.63-122.808-246.026-239.706-259.024 18.83-16.292 35.606-48.24 35.606-97.216 0-70.24-0.6-126.774-0.6-144.064 0-13.97 9.45-30.338 36.052-25.184 208.472 69.494 358.708 266.204 358.708 498.068-0.010 289.954-235.048 524.976-524.966 524.976zM198.83 206.272c-1.156-2.616-5.258-3.4-8.996-1.608-3.816 1.712-5.946 5.268-4.712 7.884 1.13 2.686 5.234 3.434 9.040 1.634 3.808-1.704 5.98-5.294 4.668-7.91v0zM220.094 182.548c-2.504-2.322-7.408-1.244-10.718 2.424-3.444 3.66-4.076 8.554-1.538 10.91 2.582 2.322 7.328 1.234 10.762-2.424 3.444-3.702 4.112-8.554 1.496-10.91v0zM240.794 152.322c-3.216-2.244-8.486-0.148-11.736 4.528-3.216 4.668-3.216 10.274 0.078 12.51 3.252 2.244 8.442 0.216 11.736-4.408 3.208-4.746 3.208-10.346-0.078-12.63v0zM269.152 123.104c-2.878-3.174-9.006-2.322-13.492 2.008-4.59 4.226-5.868 10.24-2.99 13.414 2.92 3.174 9.084 2.286 13.596-2.008 4.564-4.226 5.946-10.268 2.886-13.414v0zM308.27 106.144c-1.27-4.112-7.172-5.98-13.118-4.226-5.946 1.798-9.822 6.616-8.624 10.762 1.234 4.148 7.164 6.086 13.154 4.216 5.928-1.782 9.822-6.562 8.588-10.754v0zM351.232 103.004c0.148-4.328-4.904-7.92-11.136-7.998-6.276-0.148-11.362 3.364-11.424 7.624 0 4.374 4.928 7.92 11.206 8.034 6.234 0.114 11.354-3.364 11.354-7.658v0zM391.212 109.802c0.748-4.216-3.59-8.554-9.788-9.71-6.094-1.12-11.736 1.496-12.51 5.678-0.756 4.328 3.66 8.668 9.746 9.788 6.198 1.078 11.762-1.46 12.552-5.754v0z" />
<glyph unicode="&#xe60e;" glyph-name="uniE60E" horiz-adv-x="1260" d="M1260.062 838.784c-46.322-20.59-96.174-34.478-148.482-40.694 53.406 31.972 94.358 82.618 113.67 143.034-49.954-29.644-105.256-51.158-164.162-62.77-47.14 50.236-114.336 81.646-188.692 81.646-142.752 0-258.494-115.742-258.494-258.52 0-20.232 2.276-39.952 6.702-58.906-214.856 10.794-405.364 113.694-532.872 270.106-22.254-38.164-34.99-82.568-34.99-129.99 0-89.678 45.632-168.818 115-215.164-42.358 1.356-82.234 12.994-117.096 32.356-0.026-1.074-0.026-2.174-0.026-3.274 0-125.23 89.114-229.692 207.39-253.48-21.69-5.884-44.532-9.054-68.116-9.054-16.676 0-32.868 1.61-48.65 4.654 32.92-102.698 128.378-177.462 241.484-179.534-88.476-69.342-199.92-110.678-321.058-110.678-20.846 0-41.436 1.228-61.668 3.632 114.436-73.384 250.308-116.15 396.284-116.15 475.524 0 735.528 393.904 735.528 735.528 0 11.202-0.23 22.38-0.716 33.482 50.49 36.372 94.334 81.928 128.966 133.774z" />
<glyph unicode="&#xe60f;" glyph-name="uniE60F" horiz-adv-x="1040" d="M580.72 636.548l130.764-131.736 216.144 218.164 111.108-114.466-0.118 351.49h-351.416l109.928-108.102zM751.424 112.806h-574.62v559.884h290.758l206.568 206.274h-674.13v-942.964h928.23v639.61l-176.806-188.608z" />
<glyph unicode="&#xe610;" glyph-name="uniE610" horiz-adv-x="1282" d="M1267.576 815.854l-130.656 130.656c-18.056 18.002-47.226 18.002-65.28-0.052l-636.996-636.944-225.2 225.16c-18.056 18.056-47.226 18.056-65.282 0.040l-130.656-130.656c-18.016-18.054-18.016-47.266 0.040-65.334l371.802-371.79c13.358-13.37 30.666-30.932 48.346-30.932s36.87 17.562 50.228 30.932l783.612 783.6c18.056 18.042 18.056 47.278 0.040 65.322z" />
<glyph unicode="&#xe611;" glyph-name="uniE611" horiz-adv-x="1776" d="M42.494 184.716c-56.674-56.894-56.674-149.178 0-206.004v0c56.69-56.96 148.574-56.96 205.264 0l729.814 732.556c56.674 56.894 56.674 149.196 0 206.004v0c-56.674 56.96-148.59 56.96-205.264 0l-729.814-732.556zM1528.042-21.288c56.674-56.96 148.59-56.96 205.264 0v0c56.692 56.826 56.692 149.112 0 206.004l-729.798 732.556c-56.674 56.96-148.574 56.96-205.264 0v0c-56.674-56.808-56.674-149.112 0-206.004l729.796-732.556z" />
<glyph unicode="&#xe612;" glyph-name="uniE612" horiz-adv-x="1280" d="M42.67 960h1194.654c23.56 0 42.67-19.134 42.67-42.67v-85.34c0-23.584-19.11-42.67-42.67-42.67h-1194.654c-23.584 0.024-42.67 19.11-42.67 42.67v85.338c0 23.536 19.086 42.67 42.67 42.67zM42.67 533.302h1194.654c23.56 0 42.67-19.086 42.67-42.67v-85.338c0-23.534-19.11-42.67-42.67-42.67h-1194.654c-23.584 0.024-42.67 19.134-42.67 42.694v85.338c0 23.56 19.086 42.644 42.67 42.644zM42.67 106.654h1194.654c23.56 0 42.67-19.086 42.67-42.67v-85.34c0-23.534-19.11-42.67-42.67-42.67h-1194.654c-23.584 0.024-42.67 19.134-42.67 42.67v85.34c0 23.584 19.086 42.67 42.67 42.67z" />
<glyph unicode="&#xe613;" glyph-name="uniE613" horiz-adv-x="1002" d="M821.132 295.26c-46.528 0-88.792-17.822-120.698-46.844l-343.44 175.122c1.37 8.938 2.29 18.020 2.29 27.35 0 5.252-0.342 10.424-0.79 15.572l346.702 176.754c31.3-26.482 71.72-42.514 115.944-42.514 99.202 0 179.636 80.422 179.636 179.636s-80.434 179.664-179.636 179.664c-99.23 0-179.664-80.434-179.664-179.664 0-5.474 0.342-10.872 0.828-16.216l-346.256-176.544c-31.352 26.732-71.956 42.962-116.394 42.962-99.216 0-179.664-80.434-179.664-179.65s80.448-179.65 179.664-179.65c40.014 0 76.826 13.24 106.68 35.352l355.614-181.308c-0.172-3.212-0.486-6.384-0.486-9.634 0-99.23 80.434-179.65 179.664-179.65 99.202 0 179.638 80.422 179.638 179.65 0.014 99.19-80.434 179.61-179.636 179.61z" />
<glyph unicode="&#xe614;" glyph-name="uniE614" horiz-adv-x="1026" d="M831.14-64h-794.476c-20.24 0-36.664 16.412-36.664 36.676v794.476c0 20.252 16.422 36.664 36.664 36.664h397.232c20.252 0 36.664-16.424 36.664-36.664s-16.424-36.664-36.664-36.664h-360.556v-721.148h721.134v360.58c0 20.254 16.424 36.664 36.664 36.664 20.254 0 36.664-16.424 36.664-36.664v-397.242c0.010-20.264-16.412-36.676-36.664-36.676zM1015.008 835.11l-114.278 114.164c-14.302 14.302-37.52 14.302-51.822 0l-502.484-502.596c-3.306-3.304-5.984-7.214-7.818-11.488l-85.432-199.596c-5.996-13.812-2.814-29.826 7.704-40.334 7.088-7.090 16.378-10.76 25.918-10.76 4.89 0 9.778 0.98 14.544 2.928l199.596 85.432c4.274 1.836 8.194 4.524 11.488 7.818l502.596 502.472c14.292 14.44 14.292 37.656-0.010 51.958zM356.568 290.836l33.37 77.74 44.37-44.37-77.74-33.37zM477.82 349.746l-62.33 62.33 359.588 359.598 62.342-62.33-359.598-359.598zM871.998 743.934l-62.33 62.33 65.144 65.144 62.33-62.216-65.144-65.26z" />
<glyph unicode="&#xe615;" glyph-name="uniE615" horiz-adv-x="786" d="M129.854 960l-129.854-161.474 400.012-282.074 98.18-62.154-98.18-72.73-391.64-282.056 129.854-163.512 647.124 449.662v143.076l-655.496 431.262z" />
<glyph unicode="&#xe616;" glyph-name="uniE616" horiz-adv-x="1882" d="M1268.616 917.86c-27.268-27.266-42.27-63.534-42.27-102.022s15.002-74.754 42.138-102.022l265.884-265.884-265.884-265.884c-27.136-27.268-42.138-63.534-42.138-102.022s15.002-74.754 42.138-101.89c56.23-56.23 147.684-56.23 203.914 0l366.078 366.078c27.268 27.136 42.27 63.404 42.27 102.022v3.392c0 38.486-15.002 74.624-42.138 101.892l-366.208 366.208c-27.136 27.266-63.274 42.27-101.892 42.27s-74.754-15.004-101.892-42.14zM612.26-21.99c27.268 27.268 42.27 63.534 42.27 102.152 0 38.486-15.004 74.754-42.14 102.022l-266.012 265.882 265.882 265.882c27.268 27.268 42.27 63.404 42.27 101.892s-15.004 74.754-42.14 102.022c-56.23 56.23-147.684 56.23-203.914 0l-366.208-366.208c-27.266-27.136-42.27-63.274-42.27-102.022v-3.262c0-38.486 15.004-74.626 42.14-101.89l366.208-366.208c27.266-27.268 63.534-42.27 102.022-42.27 38.618 0 74.756 15.004 101.892 42.010z" />
<glyph unicode="&#xe617;" glyph-name="uniE617" horiz-adv-x="820" d="M819.326 960c0 0 8.53-95.864-162.158-95.864s-216.194 95.864-432.406 95.864c-139.416 0-224.76-98.572-224.76-98.572v-543.274c0 0 76.814 98.538 216.23 98.538 216.194 0 278.778-95.864 449.47-95.864s153.628 95.864 153.628 95.864v543.31zM136.55-64v607.196c0 17.642-83.57 31.96-102.406 31.96s-34.142-14.3-34.142-31.942v-607.194h136.55z" />
<glyph unicode="&#xe618;" glyph-name="uniE618" d="M512 960c-283.27 0-512-228.73-512-512s228.73-512 512-512 512 228.73 512 512-230.476 512-512 512zM700.264 186.88l-188.264 130.542-188.264-130.54v483.972h376.568v-483.972z" />
<glyph unicode="&#xe619;" glyph-name="uniE619" horiz-adv-x="950" d="M729.246 738.388c-20.742-20.742-20.742-53.494 0-74.236 139.736-139.736 139.736-367.898 0-507.634s-367.898-139.736-507.632 0c-67.684 67.684-104.802 158.294-104.802 254.362s37.118 185.586 104.802 254.362c20.742 20.742 20.742 53.492 0 74.236s-53.492 20.742-74.236 0c-88.426-88.426-136.462-205.236-136.462-328.596 0-124.452 48.034-240.17 135.368-328.596 90.61-90.61 209.604-135.37 328.596-135.37s237.986 44.76 328.596 135.37c181.22 181.22 181.22 474.882 0 656.102-20.742 20.742-54.584 20.742-74.236 0zM474.882 353.024c29.476 0 52.402 24.018 52.402 52.4v491.258c0 29.474-22.926 52.4-52.402 52.4s-52.402-24.018-52.402-52.4v-491.258c0-29.476 24.016-52.4 52.402-52.4z" />
<glyph unicode="&#xe61a;" glyph-name="uniE61A" d="M998.666 38.932c-28.826 64.808-169.504 107.694-262.984 147.968-93.472 40.264-80.702 64.676-84.060 98.068-0.532 5.294-0.86 10.966-1.024 16.774 28.63 26.952 52.11 62.29 67.738 102.606 0 0 0.89 2.222 1.148 2.908 3.574 9.504 6.77 19.436 9.492 29.552 21.432 4.23 33.914 26.972 38.688 48.004 4.812 8.52 14.828 29.49 12.534 53.308-2.324 24.084-10.65 37.96-21.012 45.692 17.162 94.976 1.054 144.886-11.264 199.916-9.35 41.738 38.962-2.94 38.962-2.94 2.202 38.236-65.536 82.648-78.93 114.79-3.922 9.42 34.632-3.994 34.632-3.994-119.664 126.688-350.29 38.626-350.29 38.626s-91.474 21.33-108.412 0.174c-1.074-1.342 22.15 1.332 31.12-14.212 11.366-19.702-37.252-48.558-37.252-48.558-41.082-28.99-34.632-50.616-34.632-50.616 12.668 14.274 39.382 6.798 39.382 6.798s-55.716-45.158-43.746-69.11c1.218-2.458 30.228 27.904 32.348-10.292 2.662-48.076-4.526-75.038 2.94-156.426-13.414-6.4-25.038-20.634-27.862-49.838-2.304-23.818 7.712-44.79 12.534-53.31 4.854-21.402 17.684-44.564 39.802-48.22 2.754-10.158 5.97-20.142 9.596-29.746 0.236-0.626 0.48-1.24 0.738-1.852l0.328-0.828c15.544-40.028 38.85-75.162 67.246-102.020-0.164-5.948-0.492-11.766-1.034-17.182-3.358-33.394 6.472-57.804-86.998-98.068s-234.148-83.15-262.984-147.968c-28.846-64.798-17.326-102.932-17.326-102.932h1007.79c0.010 0 11.622 38.134-17.202 102.932z" />
<glyph unicode="&#xe61b;" glyph-name="uniE61B" d="M774.86-64l129.842 161.486-400.076 282.112-98.098 62.054 98.202 72.704 391.68 282.010-129.946 163.634-647.168-449.638v-143.052l655.566-431.308z" />
<glyph unicode="&#xe61c;" glyph-name="uniE61C" d="M1001.6 601.6c-9.6 32-22.4 64-38.4 92.8s-35.2 57.6-54.4 83.2c-32 38.4-67.2 70.4-108.8 99.2-28.8 19.2-57.6 35.2-86.4 48-64 22.4-131.2 35.2-201.6 35.2-12.8 0-25.6 0-38.4 0-25.6-3.2-51.2-6.4-76.8-12.8-12.8-3.2-25.6-6.4-35.2-9.6-32-9.6-64-22.4-92.8-38.4-73.6-38.4-134.4-96-179.2-163.2-28.8-41.6-48-86.4-64-134.4-9.6-32-16-64-19.2-99.2-6.4-19.2-6.4-35.2-6.4-54.4s0-35.2 3.2-51.2c0-6.4 3.2-12.8 3.2-19.2 0-9.6 3.2-22.4 3.2-32 0-6.4 3.2-12.8 3.2-19.2 3.2-9.6 3.2-19.2 6.4-28.8 3.2-6.4 3.2-12.8 6.4-19.2 3.2-9.6 6.4-19.2 9.6-28.8 3.2-6.4 6.4-12.8 9.6-16 3.2-9.6 9.6-19.2 12.8-28.8 6.4-6.4 9.6-12.8 12.8-19.2 6.4-9.6 9.6-16 16-25.6 3.2-6.4 6.4-9.6 12.8-16s12.8-16 19.2-22.4c3.2-6.4 9.6-9.6 12.8-16 6.4-6.4 12.8-16 19.2-22.4 3.2-3.2 9.6-9.6 16-12.8 6.4-6.4 12.8-12.8 22.4-19.2 6.4-3.2 9.6-9.6 16-12.8 6.4-6.4 16-12.8 22.4-16s12.8-6.4 16-9.6c0 0 0 0 0 0 9.6-6.4 16-9.6 25.6-16 6.4-3.2 12.8-6.4 19.2-9.6 9.6-3.2 16-9.6 25.6-12.8 6.4-3.2 12.8-6.4 19.2-6.4 9.6-3.2 16-6.4 25.6-9.6 6.4-3.2 16-3.2 22.4-6.4 9.6-3.2 19.2-6.4 25.6-6.4s16-3.2 22.4-3.2c9.6 0 19.2-3.2 28.8-3.2 6.4 0 16 0 22.4 0 9.6 0 19.2 0 28.8 0 0 0 0 0 0 0 19.2 0 35.2 0 51.2 3.2s35.2 3.2 51.2 6.4c32 6.4 64 16 96 28.8 16 6.4 28.8 12.8 44.8 22.4 9.6 6.4 19.2 9.6 25.6 16 19.2 12.8 38.4 25.6 54.4 38.4 28.8 22.4 54.4 51.2 76.8 80 6.4 9.6 16 19.2 22.4 28.8 60.8 80 92.8 179.2 92.8 284.8 0 54.4-9.6 105.6-22.4 153.6zM512 777.6c76.8 0 140.8-64 140.8-140.8s-64-140.8-140.8-140.8-140.8 64-140.8 140.8c0 76.8 64 140.8 140.8 140.8zM512 96c-92.8 0-182.4 35.2-249.6 102.4-6.4 6.4-12.8 16-19.2 22.4v99.2c0 57.6 48 105.6 105.6 105.6h326.4c57.6 0 105.6-48 105.6-105.6v-96c-64-76.8-160-128-268.8-128z" />
<glyph unicode="&#xe61d;" glyph-name="uniE61D" d="M512 960c-281.6 0-512-230.4-512-512 0-284.8 227.2-512 512-512 281.6 0 512 230.4 512 512s-230.4 512-512 512zM636.8 246.4c-57.6-38.4-134.4-54.4-204.8-28.8-124.8 38.4-195.2 172.8-153.6 297.6 38.4 124.8 172.8 195.2 297.6 153.6 124.8-38.4 195.2-172.8 153.6-297.6l60.8-147.2-153.6 22.4zM531.2 553.6c-6.4 12.8-16 19.2-28.8 19.2h-3.2c-12.8 0-22.4-6.4-28.8-19.2l-83.2-188.8c0-3.2-3.2-6.4-3.2-9.6 0-12.8 9.6-22.4 22.4-22.4 9.6 0 19.2 6.4 22.4 16l22.4 51.2h96l19.2-48c3.2-9.6 12.8-16 22.4-16 12.8 0 22.4 9.6 22.4 22.4 0 3.2 0 6.4-3.2 9.6l-76.8 185.6zM464 435.2l38.4 89.6 38.4-89.6h-76.8z" />
<glyph unicode="&#xe61e;" glyph-name="uniE61E" d="M512 960c-281.6 0-512-230.4-512-512 0-284.8 227.2-512 512-512 281.6 0 512 230.4 512 512s-230.4 512-512 512zM236.8 464c0 96 80 176 176 176h195.2c96 0 176-80 176-176s-76.8-176-172.8-176h-60.8l-198.4-169.6 3.2 179.2c-67.2 22.4-118.4 89.6-118.4 166.4zM432 460.8c0-22.974-18.626-41.6-41.6-41.6s-41.6 18.626-41.6 41.6c0 22.976 18.626 41.6 41.6 41.6s41.6-18.626 41.6-41.6zM550.4 460.8c0-22.974-18.626-41.6-41.6-41.6s-41.6 18.626-41.6 41.6c0 22.976 18.626 41.6 41.6 41.6s41.6-18.626 41.6-41.6zM668.8 460.8c0-22.974-18.626-41.6-41.6-41.6s-41.6 18.626-41.6 41.6c0 22.976 18.626 41.6 41.6 41.6s41.6-18.626 41.6-41.6z" />
<glyph unicode="&#xe61f;" glyph-name="uniE61F" horiz-adv-x="780" d="M0 960v-30.632l323.83-577.64v-415.726h65.642v538.256l-223.18 485.744h-166.29zM612.65 960l-223.178-485.744v-538.256h65.642v415.726l323.83 577.64v30.632h-166.29z" />
<glyph unicode="&#xe620;" glyph-name="uniE620" horiz-adv-x="1104" d="M1079.138 542.524h-165.414v173.292c0 11.814-11.816 23.63-23.63 23.63h-47.262c-11.816 0-23.63-11.814-23.63-23.63v-173.292h-165.414c-11.816 0-23.63-11.814-23.63-23.63v-47.262c0-11.814 11.816-23.632 23.63-23.632h165.414v-173.292c0-11.816 11.816-23.63 23.63-23.63h47.262c11.816 0 23.63 11.816 23.63 23.63v173.292h165.416c11.816 0 23.632 11.814 23.632 23.63v47.262c0 15.754-11.816 23.63-23.632 23.63zM519.876 392.862c-35.446 27.568-66.954 63.014-66.954 74.832 0 19.692 0 31.508 47.262 66.954 59.076 47.262 90.586 110.278 90.586 177.23 0 59.076-19.692 114.216-47.262 149.662h23.63c3.938 0 7.876 0 11.816 3.938l66.954 47.262c7.876 7.876 11.816 15.754 7.876 27.568 0 11.816-11.816 19.692-19.692 19.692h-291.446c-35.446 0-66.954-3.938-98.462-15.754-106.338-39.384-181.17-133.908-181.17-228.43 0-137.846 102.4-240.246 240.246-244.186-3.938-11.814-3.938-19.692-3.938-31.508 0-19.692 3.938-39.384 15.754-59.076 0 0-3.938 0-3.938 0-129.968 0-248.122-66.954-291.446-165.414-11.814-27.568-15.754-51.2-15.754-78.77 0-23.63 7.878-47.262 19.692-70.892 27.57-51.2 86.646-90.586 169.354-114.216 35.446-11.816 82.708-15.754 129.968-15.754 43.322 0 82.708 3.938 118.154 15.754 114.214 35.446 189.046 122.092 189.046 224.492 3.938 98.462-27.568 157.538-110.278 216.616zM149.662 168.37c0 70.892 86.646 133.908 185.108 133.908h3.938c23.63 0 43.322-3.938 63.014-11.816 7.878-3.938 11.814-7.876 19.692-15.754 47.262-31.508 74.832-55.138 86.646-86.646 3.938-7.876 3.938-15.754 3.938-23.63 0-86.646-63.014-133.908-189.046-133.908-98.462 0-173.292 63.014-173.292 137.846zM240.246 841.846c15.754 19.692 35.446 27.568 59.076 27.568h3.938c63.014 0 126.032-74.83 137.846-165.414 7.878-51.2-3.938-98.462-27.57-126.030-15.754-19.692-35.446-27.57-59.076-27.57 0 0 0 0 0 0v0c-63.014 3.938-126.032 78.77-137.846 169.354-7.878 47.262 0 94.524 23.632 122.092z" />
<glyph unicode="&#xe621;" glyph-name="uniE621" horiz-adv-x="462" d="M462.222 629.334h-160v106.666c0 39.11 28.444 46.222 46.222 46.222s110.222 0 110.222 0v177.778h-152.89c-170.668 0-206.222-131.556-206.222-213.332v-117.332h-99.556v-181.332h99.556c0-231.11 0-512 0-512h206.222c0 0 0 280.89 0 512h138.668l17.778 181.332z" />
<glyph unicode="&#xe622;" glyph-name="uniE622" horiz-adv-x="1028" d="M513.606-64c-282.15 0-513.606 228.242-513.606 513.606s231.456 510.394 513.606 510.394 513.606-228.242 513.606-513.606-231.456-510.394-513.606-510.394zM513.606 893.48c-247.284 0-447.088-199.806-447.088-447.088s199.806-446.842 447.088-446.842 447.088 199.804 447.088 447.088-199.806 446.842-447.088 446.842zM605.596 253.018c0 9.398-3.216 19.042-6.428 28.438-3.216 12.61-12.61 22.254-22.254 31.652 0 0 0 0-3.216 3.216h3.216c19.042 3.216 34.866 6.428 50.692 9.398 15.826 3.216 31.652 9.398 47.478 19.042 25.47 15.826 44.264 41.296 57.122 69.734 6.428 12.61 9.398 28.438 9.398 41.296 3.216 12.61 3.216 22.254 3.216 34.868 0 22.254-3.216 47.478-12.61 66.52-6.428 12.61-12.61 25.47-22.254 34.868 0 0 0 0-3.216 3.214 0 6.428 3.216 9.396 3.216 15.826 3.216 15.826 3.216 31.652 0 47.478-3.216 12.61-3.216 22.254-9.398 31.652 0 3.216-3.216 3.216-3.216 3.216-9.398 0-19.042 0-25.47-3.216-12.61-3.216-28.438-9.398-41.296-15.826-9.398-6.428-19.042-12.61-28.438-15.826h-3.216c-12.61 0-25.47 3.216-38.082 3.216-19.042 3.214-38.082 3.214-60.336 3.214-12.61 0-25.47 0-38.082-3.214s-25.47-3.216-38.082-9.398c-3.214 0-3.214 0-6.428 0-15.826 12.61-34.868 22.254-53.908 28.438-9.396 3.214-19.040 6.428-25.47 6.428s-9.396 0-15.826 0c-3.214 0-3.214 0-3.214-3.216-9.396-22.254-12.61-44.264-9.396-69.734 0-6.428 3.214-15.826 6.428-22.254 0-3.216 0-3.216 0-6.428-9.396-9.396-15.826-22.254-22.254-34.866s-9.396-28.438-9.396-44.264c0-15.826 0-34.868 0-50.692 3.214-15.826 6.428-31.652 12.61-47.478 12.61-38.082 38.082-63.304 72.95-79.378 15.826-6.428 31.652-12.61 47.478-15.826 9.396-3.216 22.254-3.216 31.652-6.428 0 0 0 0 3.214 0v0c-12.61-9.398-22.254-25.47-25.47-41.296-3.214-6.428-3.214-15.826-3.214-22.254 0-19.042 0-186.946 0-205.986 0 0 0-25.47 0-63.304 6.428-3.216 12.61-3.216 22.254-6.428 12.61-3.216 28.438-3.216 44.264-6.428 3.214 0 6.428 0 6.428 0 12.61 0 25.47 0 41.296 0h3.216c12.61 0 25.47 3.216 38.082 3.216 12.61 3.216 22.254 3.216 34.866 6.428 0 38.082 0 63.304 0 63.304-8.902 32.148-8.902 200.298-8.902 219.092z" />
<glyph unicode="&#xe623;" glyph-name="uniE623" horiz-adv-x="1028" d="M513.606-64c-282.15 0-513.606 228.242-513.606 513.606s231.456 510.394 513.606 510.394 513.606-228.242 513.606-513.606-231.456-510.394-513.606-510.394zM513.606 893.48c-247.284 0-447.088-199.806-447.088-447.088s199.806-446.842 447.088-446.842 447.088 199.804 447.088 447.088-199.806 446.842-447.088 446.842zM380.57 240.406h-95.204v307.62h95.204v-307.62zM329.63 589.076v0c-34.868 0-57.122 22.254-57.122 53.908s22.254 53.908 60.336 53.908c34.868 0 57.122-22.256 57.122-53.908s-22.254-53.908-60.336-53.908zM767.32 240.406h-107.816v158.51c0 41.296-15.826 69.734-53.908 69.734-28.438 0-44.264-19.040-50.692-38.082-3.216-6.428-3.216-15.826-3.216-25.47v-167.904h-107.816c0 0 0 282.15 0 307.62h107.816v-47.478c6.428 22.256 41.296 50.692 95.204 50.692 69.734 0 123.642-44.264 123.642-139.468v-167.904h-3.216z" />
<glyph unicode="&#xe624;" glyph-name="uniE624" horiz-adv-x="1028" d="M513.606-64c-282.15 0-513.606 228.242-513.606 513.606s231.456 510.394 513.606 510.394 513.606-228.242 513.606-513.606-231.456-510.394-513.606-510.394zM513.606 893.48c-247.284 0-447.088-199.806-447.088-447.088s199.806-447.088 447.088-447.088 447.088 199.806 447.088 447.088-199.806 447.088-447.088 447.088zM814.798 652.626c-22.254-12.61-50.692-25.47-76.164-28.438-22.254 22.254-53.908 38.082-88.774 38.082-66.52 0-120.428-53.908-120.428-120.426 0-9.398 0-19.042 3.216-28.438-101.386 6.43-190.162 53.908-250.498 126.856-9.396-19.040-15.826-38.082-15.826-60.336 0-41.296 22.254-79.378 53.908-101.386-19.040 0-38.082 6.428-53.908 15.826v0c0-57.122 41.296-107.816 98.17-117.212-9.396-3.216-22.254-3.216-31.652-3.216-6.428 0-15.826 0-22.254 3.216 15.826-47.478 60.336-82.346 114.246-82.346-41.296-31.652-91.988-50.692-149.112-50.692-9.396 0-19.040 0-28.438 3.216 53.908-34.866 117.212-53.908 183.98-53.908 221.812 0 342.486 183.98 342.486 342.488 0 6.428 0 9.396 0 15.826 22.254 15.826 44.264 38.082 60.336 63.304-22.254-9.398-44.264-15.826-69.734-19.042 21.76 5.936 40.802 27.942 50.446 56.628z" />
<glyph unicode="&#xe625;" glyph-name="uniE625" horiz-adv-x="836" d="M465.92 581.12h-264.192v-27.648h263.168v27.648zM465.92 493.056h-264.192v-27.648h263.168v27.648zM465.92 409.088h-264.192v-27.648h263.168v27.648zM465.92 230.912h-264.192v-27.648h263.168v27.648zM465.92 321.024h-264.192v-27.648h263.168v27.648zM667.648 848.384h-51.2l30.72 111.616h-55.296l-30.72-111.616h-100.352l30.72 111.616h-55.296l-30.72-111.616h-100.352l30.72 111.616h-55.296l-30.72-111.616h-100.352l30.72 111.616h-55.296l-30.72-111.616h-94.208v-912.384h671.744v150.528h162.816l-166.912 761.856zM588.8 18.944h-505.856v746.496h505.856v-746.496z" />
<glyph unicode="&#xe626;" glyph-name="uniE626" horiz-adv-x="4990" d="M4437.332 960c315.078 0 551.386-236.308 551.386-525.128s-236.308-525.128-551.386-525.128-525.128 262.564-525.128 525.128 236.308 525.128 525.128 525.128zM2494.358 960c288.82 0 551.384-236.308 551.384-525.128s-236.308-525.128-551.386-525.128-551.384 262.564-551.384 525.128 262.564 525.128 551.384 525.128zM551.384 960c288.822 0 551.384-236.308 551.384-525.128s-236.308-525.128-551.384-525.128-551.384 262.564-551.384 525.128 236.308 525.128 551.384 525.128z" />
<glyph unicode="&#xe627;" glyph-name="uniE627" horiz-adv-x="1322" d="M1179.366 338.538v0l-519.062-402.538-522.592 402.538c-81.214 63.558-137.71 162.428-137.71 278.952 0 187.144 155.366 342.51 342.51 342.51 141.24 0 261.298-84.746 314.262-208.332 56.496 123.586 176.552 208.332 317.794 208.332 190.676 0 342.51-155.366 342.51-342.51 3.53-116.524-52.966-215.394-137.71-278.952z" />
<glyph unicode="&#xe628;" glyph-name="uniE628" d="M406.4 646.4h220.8c9.6 0 16-6.4 16-16v-358.4h67.2v435.2h-304v-60.8zM512 960c-281.6 0-512-230.4-512-512 0-284.8 227.2-512 512-512 281.6 0 512 230.4 512 512s-230.4 512-512 512zM742.4 256c0-9.6-6.4-16-16-16h-83.2v-80c0-9.6-6.4-16-16-16h-336c-9.6 0-16 6.4-16 16v470.4c0 9.6 6.4 16 16 16h83.2v76.8c0 9.6 6.4 16 16 16h336c9.6 0 16-6.4 16-16v-467.2zM374.4 531.2h-22.4v-32h214.4v32h-160zM374.4 451.2h-22.4v-32h214.4v32h-160zM374.4 368h-22.4v-32h214.4v32h-160zM374.4 288h-22.4v-32h214.4v32h-160z" />
<glyph unicode="&#xe629;" glyph-name="uniE629" horiz-adv-x="792" d="M590.586 792.032c-94.608 0-174.884-114.678-194.95-203.552-20.068 88.876-100.344 203.552-194.952 203.552-111.81 0-200.686-88.876-200.686-200.686 0-215.020 395.636-487.38 395.636-487.38s395.636 255.158 395.636 487.38c0 111.81-88.876 200.684-200.686 200.684z" />
<glyph unicode="&#xe62a;" glyph-name="uniE62A" horiz-adv-x="792" d="M394.23 111.4c-4.524 0-9.040 1.354-12.918 4.048-3.74 2.6-92.638 64.692-183.014 151.89-124.174 119.808-187.134 224.644-187.134 311.6 0 55.072 21.354 106.756 60.128 145.532s90.46 60.128 145.532 60.128c79.452 0 144.176-71.658 179.14-141.992 12.142 25.874 28.036 50.766 46.262 71.858 39.080 45.228 86.036 70.134 132.222 70.134 55.28 0 107.086-21.98 145.876-61.894 38.192-39.298 58.414-90.462 56.97-144.088-0.082-52.56-20.274-109.986-60.014-170.684-30.87-47.15-73.708-96.648-127.322-147.12-90.554-85.25-179.668-143.338-183.416-145.77s-8.032-3.642-12.31-3.642zM216.826 739.348c-42.986 0-83.306-16.646-113.534-46.876-30.228-30.226-46.876-70.546-46.876-113.532 0-73.158 59.926-169.646 173.302-279.036 68.388-65.982 137.356-118.176 164.92-138.316 27.752 19.084 96.69 68.452 164.78 132.626 78.746 74.218 172.62 183.862 172.62 284.726 0 0.216 0.004 0.43 0.010 0.646 1.184 41.42-14.504 81.046-44.178 111.58-30.194 31.068-70.476 48.182-113.422 48.182-32.834 0-67.63-19.344-97.978-54.47-27.842-32.22-49.25-74.59-57.266-113.338-2.138-10.336-11.14-17.822-21.692-18.038-10.506-0.228-19.854 6.894-22.414 17.134-9.67 38.68-32.072 80.988-59.926 113.174-39.724 45.904-75.406 55.538-98.344 55.538z" />
<glyph unicode="&#xe62b;" glyph-name="uniE62B" horiz-adv-x="792" d="M396.816 101.818c-6.718 0-13.43 2.010-19.192 6.016-3.77 2.62-93.368 65.202-184.368 153.004-126.402 121.958-190.494 229.456-190.494 319.51 0 58.008 22.496 112.452 63.348 153.302s95.296 63.348 153.302 63.348c49.712 0 98.424-25.928 140.872-74.978 14.064-16.252 26.986-34.722 38.1-54.154 10.896 19.822 23.812 38.64 38.112 55.192 41.2 47.682 91.11 73.94 140.536 73.94 58.274 0 112.88-23.164 153.754-65.226 40.24-41.406 61.564-95.338 60.078-151.9-0.212-97.104-64.4-206.668-190.79-325.654-91.268-85.92-181.188-144.534-184.97-146.99-5.57-3.61-11.936-5.41-18.29-5.41zM219.412 729.768c-40.050 0-77.61-15.506-105.764-43.658s-43.656-65.712-43.656-105.76c0-70.104 58.766-163.858 169.944-271.13 63.246-61.020 126.944-110.134 157.478-132.724 30.724 21.442 94.404 68.046 157.288 127.344 110.518 104.216 168.932 199.832 168.932 276.508 0 0.32 0.004 0.64 0.014 0.962 1.1 38.426-13.49 75.222-41.076 103.606-28.106 28.922-65.59 44.848-105.542 44.848-39.926 0-73.314-31.742-89.666-50.664-26.672-30.868-47.166-71.384-54.82-108.382-3.178-15.356-16.552-26.478-32.23-26.798-15.668-0.336-29.498 10.24-33.302 25.454-9.132 36.534-31.194 78.168-57.572 108.65-16.72 19.324-50.652 51.742-90.032 51.742z" />
<glyph unicode="&#xe62c;" glyph-name="uniE62C" d="M914.286 838.096h-804.572c-19.504 0-36.57-17.068-36.57-36.572v-731.428c0-19.504 17.068-36.572 36.57-36.572h804.572c19.504 0 36.572 17.068 36.572 36.572v731.428c0 19.504-17.068 36.572-36.572 36.572zM487.62 252.952v-24.38h-170.668v26.818c97.524 73.144 146.286 117.028 146.286 160.914 0 34.132-26.82 48.762-53.638 48.762-31.694 0-56.076-12.19-70.704-31.694l-21.942 19.504c19.504 26.82 53.638 41.448 90.21 41.448 43.886 0 87.772-26.82 87.772-78.020 0-53.638-53.638-87.77-126.782-160.914h119.466zM707.048 467.504l-97.524-238.932h-36.572l104.838 243.81h-141.41v24.382h170.668v-29.258zM780.19 643.048h-536.38c-7.314 0-12.19 4.876-12.19 12.19s4.876 12.19 12.19 12.19h536.38c7.314 0 12.19-4.876 12.19-12.19s-4.876-12.19-12.19-12.19z" />
<glyph unicode="&#xe62d;" glyph-name="uniE62D" d="M512 874.668c-234.058 0-426.666-192.61-426.666-426.668s192.61-426.666 426.666-426.666 426.666 192.61 426.666 426.666-192.61 426.666-426.666 426.666zM672.914 296.838c-2.438-2.438-4.876-4.876-9.752-4.876-2.438 0-4.876 0-7.314 2.438l-163.352 119.466c-2.438 2.438-4.876 4.876-4.876 9.752v316.952c0 7.314 4.876 12.19 12.19 12.19s12.19-4.876 12.19-12.19v-309.638l158.476-114.59c4.876-7.314 4.876-14.63 2.438-19.504z" />
<glyph unicode="&#xe62e;" glyph-name="uniE62E" d="M512 21.332c-234.058 0-426.666 192.61-426.666 426.668s192.61 426.666 426.666 426.666 426.666-192.61 426.666-426.666-192.61-426.666-426.666-426.666zM512 850.286c-221.866 0-402.286-180.42-402.286-402.286s180.42-402.286 402.286-402.286 402.286 180.418 402.286 402.286c0 221.866-180.418 402.286-402.286 402.286zM663.162 291.962c-2.438 0-4.876 0-7.314 2.438l-163.352 119.466c-2.438 2.438-4.876 4.876-4.876 9.752v316.952c0 7.314 4.876 12.19 12.19 12.19s12.19-4.876 12.19-12.19v-309.638l158.476-114.59c4.876-4.876 7.314-12.19 2.438-17.068-2.438-4.876-7.314-7.314-9.752-7.314z" />
<glyph unicode="&#xe62f;" glyph-name="uniE62F" d="M182.856 118.856c-2.438 0-7.314 0-9.752 2.438-4.876 4.876-4.876 12.19 0 17.068l633.904 633.904c4.876 4.876 12.19 4.876 17.068 0s4.876-12.19 0-17.068l-633.904-633.904c0-2.438-4.876-2.438-7.314-2.438zM816.762 118.856c-2.438 0-7.314 0-9.752 2.438l-633.904 633.904c-2.438 4.876-2.438 14.63 0 19.504s12.19 4.876 17.068 0l633.904-633.904c4.876-4.876 4.876-12.19 0-17.068 0-4.876-4.876-4.876-7.314-4.876z" />
<glyph unicode="&#xe630;" glyph-name="uniE630" d="M433.98-44.496c-2.438 0-2.438 0-4.876 0-4.876 2.438-9.752 2.438-7.314 7.314l41.448 363.276h-212.114c-4.876 0-7.314 7.314-9.752 12.19s-2.438 9.752 0 14.63l314.514 580.268c2.438 4.876 7.314 7.314 14.63 7.314 4.876-2.438 9.752-12.19 9.752-17.068l-21.942-402.286h214.552c4.876 0 7.314 2.438 9.752 0 2.438-4.876 2.438-4.876 0-9.752l-336.456-551.010c-2.438-4.876-7.314-4.876-12.19-4.876z" />
<glyph unicode="&#xe631;" glyph-name="uniE631" d="M433.98-44.496c-2.438 0-2.438 0-4.876 0-4.876 2.438-9.752 2.438-7.314 7.314l41.448 363.276h-212.114c-4.876 0-7.314 7.314-9.752 12.19s-2.438 9.752 0 14.63l314.514 580.268c2.438 4.876 7.314 7.314 14.63 7.314 4.876-2.438 9.752-12.19 9.752-17.068l-21.942-402.286h214.552c4.876 0 7.314 2.438 9.752 0 2.438-4.876 2.438-4.876 0-9.752l-336.456-551.010c-2.438-4.876-7.314-4.876-12.19-4.876zM273.068 350.476h204.8c2.438 0 7.314 4.876 9.752 2.438s2.438-2.438 2.438-7.314l-36.572-331.582 297.448 482.742h-204.8c-2.438 0-7.314 7.314-9.752 9.752s-2.438 7.314-2.438 12.19l17.068 351.086-277.942-519.314z" />
<glyph unicode="&#xe632;" glyph-name="uniE632" d="M519.314-7.924c-251.124 0-458.362 204.8-458.362 455.924s207.238 455.924 458.362 455.924h2.438c4.876 0 9.752-2.438 12.19-7.314s2.438-9.752 0-12.19c-53.638-65.828-80.456-146.286-80.456-231.62 0-207.238 168.23-373.028 373.028-373.028 34.134 0 65.828 4.876 99.962 14.63 4.876 2.438 9.752 0 12.19-2.438s4.876-7.314 2.438-12.19c-68.268-175.544-234.058-287.694-421.79-287.694zM499.81 879.544c-229.18-9.752-414.476-199.924-414.476-431.544 0-238.932 195.048-431.544 431.542-431.544 168.23 0 319.39 97.524 390.096 248.686-26.818-4.876-56.076-9.752-82.894-9.752-219.428 0-397.41 177.98-397.41 397.41 2.438 82.894 26.82 160.914 73.142 226.742z" />
<glyph unicode="&#xe633;" glyph-name="uniE633" d="M519.314-7.924c-251.124 0-458.362 204.8-458.362 455.924s207.238 455.924 458.362 455.924h2.438c4.876 0 9.752-2.438 12.19-7.314s2.438-9.752 0-12.19c-53.638-65.828-80.456-146.286-80.456-231.62 0-207.238 168.23-373.028 373.028-373.028 34.134 0 65.828 4.876 99.962 14.63 4.876 2.438 9.752 0 12.19-2.438s4.876-7.314 2.438-12.19c-68.268-175.544-234.058-287.694-421.79-287.694z" />
<glyph unicode="&#xe634;" glyph-name="uniE634" d="M950.856 70.096c0-19.504-17.068-36.572-36.572-36.572h-804.572c-19.504 0-36.57 17.068-36.57 36.572v731.428c0 19.504 17.068 36.572 36.57 36.572h804.572c19.504 0 36.572-17.068 36.572-36.572v-731.428zM926.476 801.524c0 7.314-4.876 12.19-12.19 12.19h-804.572c-7.314 0-12.19-4.876-12.19-12.19v-731.428c0-7.314 4.876-12.19 12.19-12.19h804.572c7.314 0 12.19 4.876 12.19 12.19v731.428zM780.19 643.048h-536.38c-7.314 0-12.19 4.876-12.19 12.19s4.876 12.19 12.19 12.19h536.38c7.314 0 12.19-4.876 12.19-12.19s-4.876-12.19-12.19-12.19zM321.83 240.762v19.504c87.772 70.706 148.724 121.904 148.724 173.106 0 36.572-31.694 53.638-58.514 53.638-31.694 0-58.514-14.63-70.704-34.132l-14.63 14.63c19.504 24.38 48.762 39.010 87.772 39.010s82.894-21.942 82.894-73.144c0-58.514-60.952-109.714-136.534-170.668h136.534v-19.504h-175.544zM575.39 240.762l109.714 238.932h-143.848v19.504h170.668v-14.63l-112.152-243.81h-24.38z" />
<glyph unicode="&#xe635;" glyph-name="uniE635" d="M512-6.656c-249.856 0-454.656 204.8-454.656 454.656s204.8 454.656 454.656 454.656 454.656-204.8 454.656-454.656c0-73.728-16.384-143.36-53.248-208.896l53.248-229.376-217.088 53.248c-73.728-45.056-155.648-69.632-237.568-69.632zM512 861.696c-229.376 0-413.696-188.416-413.696-413.696s184.32-413.696 413.696-413.696c77.824 0 155.648 20.48 221.184 65.536l8.192 4.096 172.032-40.96-40.96 180.224 4.096 8.192c32.768 61.44 49.152 126.976 49.152 196.608-4.096 225.28-188.416 413.696-413.696 413.696zM655.36 271.872l-36.864 94.208h-200.704l-36.864-94.208h-40.96l155.648 380.928h40.96l155.648-380.928h-36.864zM516.096 620.032l-90.112-225.28h180.224l-90.112 225.28z" />
<glyph unicode="&#xe636;" glyph-name="uniE636" d="M430.080 386.56h163.84l-81.92 204.8zM913.408 239.104c32.768 65.536 53.248 135.168 53.248 208.896 0 249.856-204.8 454.656-454.656 454.656s-454.656-204.8-454.656-454.656 204.8-454.656 454.656-454.656c81.92 0 163.84 24.576 237.568 65.536l217.088-53.248-53.248 233.472zM638.976 263.68l-32.768 81.92h-192.512l-32.768-81.92h-53.248l155.648 368.64h57.344l155.648-368.64h-57.344z" />
<glyph unicode="&#xe637;" glyph-name="uniE637" d="M200.704 42.496l61.44 122.88c-4.096 4.096-8.192 4.096-12.288 8.192-20.48 12.288-36.864 24.576-53.248 36.864-8.192 4.096-12.288 12.288-20.48 16.384-28.672 24.576-61.44 53.248-81.92 86.016-90.112 135.168-65.536 303.104 57.344 413.696 90.112 81.92 192.512 122.88 307.2 126.976 16.384 0 28.672 0 45.056 0 139.264 0 245.76-28.672 335.872-98.304s143.36-163.84 147.456-266.24c0-102.4-45.056-196.608-135.168-266.24-86.016-69.632-188.416-102.4-299.008-102.4-61.44 0-102.4-12.288-139.264-36.864-57.344-32.768-94.208-40.96-172.032-45.056l-40.96 4.096zM503.808 812.544c-12.288 0-28.672 0-40.96 0-106.496-4.096-196.608-40.96-282.624-118.784-106.496-98.304-126.976-241.664-45.056-360.448 20.48-28.672 49.152-53.248 73.728-77.824 8.192-8.192 16.384-12.288 20.48-20.48 12.288-12.288 32.768-24.576 49.152-36.864 8.192-4.096 16.384-12.288 28.672-16.384l16.384-12.288-45.056-90.112c49.152 4.096 77.824 12.288 114.688 36.864 57.344 36.864 118.784 40.96 159.744 40.96 102.4 0 196.608 32.768 274.432 94.208s118.784 143.36 118.784 233.472c0 90.112-49.152 172.032-131.072 233.472-86.016 69.632-180.224 94.208-311.296 94.208z" />
<glyph unicode="&#xe638;" glyph-name="uniE638" d="M200.704 42.496l61.44 122.88c-4.096 4.096-8.192 4.096-12.288 8.192-20.48 12.288-36.864 24.576-53.248 36.864-8.192 4.096-12.288 12.288-20.48 16.384-28.672 24.576-61.44 53.248-81.92 86.016-90.112 135.168-65.536 303.104 57.344 413.696 90.112 81.92 192.512 122.88 307.2 126.976 16.384 0 28.672 0 45.056 0 139.264 0 245.76-28.672 335.872-98.304s143.36-163.84 147.456-266.24c0-102.4-45.056-196.608-135.168-266.24-86.016-69.632-188.416-102.4-299.008-102.4-61.44 0-102.4-12.288-139.264-36.864-57.344-32.768-94.208-40.96-172.032-45.056l-40.96 4.096z" />
<glyph unicode="&#xe639;" glyph-name="uniE639" d="M32.768 50.688v73.728c0 4.096 8.192 495.616 495.616 507.904v212.992l462.848-348.16-462.848-360.448v237.568c-249.856 0-323.584-45.056-454.656-262.144l-40.96-61.44zM548.864 591.36c-348.16 0-442.368-249.856-466.944-385.024 118.784 172.032 217.088 208.896 466.944 208.896h20.48v-192.512l352.256 274.432-352.256 266.24v-172.032h-20.48z" />
<glyph unicode="&#xe63a;" glyph-name="uniE63A" d="M32.768 50.688v73.728c0 4.096 8.192 495.616 495.616 507.904v212.992l462.848-348.16-462.848-360.448v237.568c-249.856 0-323.584-45.056-454.656-262.144l-40.96-61.44z" />
<glyph unicode="&#xe63b;" glyph-name="uniE63B" d="M547.84 704l117.76 51.2c15.36 5.12 20.48 20.48 15.36 35.84s-20.48 20.48-35.84 15.36l-168.96-76.8c-10.24-5.12-15.36-10.24-15.36-15.36s0-15.36 0-20.48l71.68-168.96c5.12-10.24 15.36-15.36 25.6-15.36 5.12 0 5.12 0 10.24 0 15.36 5.12 20.48 20.48 15.36 35.84l-51.2 107.52c128-10.24 235.52-122.88 235.52-256 0-143.36-112.64-256-256-256s-256 112.64-256 256c0 15.36-10.24 25.6-25.6 25.6s-25.6-10.24-25.6-20.48c0-168.96 138.24-307.2 307.2-307.2s307.2 138.24 307.2 307.2c0 153.6-117.76 286.72-271.36 302.080z" />
<glyph unicode="&#xe63c;" glyph-name="uniE63C" d="M547.84 448l199.68 199.68c10.24 10.24 10.24 25.6 0 35.84s-25.6 10.24-35.84 0l-199.68-199.68-199.68 199.68c-10.24 10.24-25.6 10.24-35.84 0s-10.24-25.6 0-35.84l199.68-199.68-199.68-199.68c-10.24-10.24-10.24-25.6 0-35.84 5.12-5.12 10.24-5.12 20.48-5.12s15.36 0 20.48 5.12l199.68 199.68 199.68-199.68c5.12-5.12 10.24-5.12 20.48-5.12s15.36 0 20.48 5.12c10.24 10.24 10.24 25.6 0 35.84l-209.92 199.68z" />
<glyph unicode="&#xe63d;" glyph-name="uniE63D" d="M819.2 243.2h-614.4c-10.24 0-20.48 0-25.6 10.24-15.36 51.2 15.36 76.8 40.96 102.4 30.72 30.72 61.44 56.32 61.44 133.12 0 5.12 0 10.24 0 10.24 0 10.24 0 25.6 0 40.96 20.48 148.48 102.4 225.28 230.4 225.28s209.92-81.92 230.4-225.28c0-15.36 0-30.72 0-40.96 0-5.12 0-10.24 0-15.36 0-71.68 30.72-107.52 61.44-133.12 25.6-25.6 56.32-46.080 40.96-97.28-5.12-10.24-15.36-10.24-25.6-10.24zM230.4 294.4h568.32c-5.12 0-10.24 10.24-25.6 25.6-30.72 30.72-76.8 71.68-76.8 168.96 0 5.12 0 10.24 0 15.36 0 10.24 0 20.48 0 30.72-10.24 81.92-51.2 184.32-179.2 184.32s-168.96-97.28-179.2-184.32c0-10.24 0-20.48 0-30.72 0-5.12 0-10.24 0-15.36 0-97.28-46.080-133.12-76.8-163.84-20.48-20.48-30.72-30.72-30.72-30.72zM512 151.040c-76.8 0-133.12 40.96-133.12 92.16h51.2c0 0 35.84-40.96 81.92-40.96s81.92 40.96 81.92 40.96h51.2c0-51.2-56.32-92.16-133.12-92.16z" />
<glyph unicode="&#xe63e;" glyph-name="uniE63E" horiz-adv-x="785" d="M546.133 618.667v-34.133h170.667v-580.267h-648.533v580.267h204.8v34.133h-238.933v-648.533h716.8v648.533zM375.467 847.36v44.373h34.133v-40.96l136.533-136.533 23.893 23.893-177.493 177.493-174.080-177.493 23.893-23.893zM375.467 847.36v-604.16h34.133v607.573l-17.067 17.067zM375.467 891.733v-44.373l17.067 20.48 17.067-17.067v40.96z" />
<glyph unicode="&#xe63f;" glyph-name="uniE63F" horiz-adv-x="1040" d="M400-64c-8 0-16 0-16 8-16 8-24 24-24 32v184h-128c-128 0-232 104-232 232v336c0 128 104 232 232 232h584c120 0 224-104 224-232v-344c0-128-104-232-232-232h-56l-328-216c-8 8-16 0-24 0zM232 880c-88 0-152-64-152-152v-344c0-80 64-144 152-144h168c24 0 40-16 40-40v-144l280 176c8 8 16 8 16 8h72c80 0 152 64 152 152v336c0 80-64 152-152 152h-576z" />
<glyph unicode="&#xe640;" glyph-name="uniE640" horiz-adv-x="919" d="M411.429 137.143c-228.571 0-411.429 182.857-411.429 411.429s182.857 411.429 411.429 411.429 411.429-182.857 411.429-411.429-182.857-411.429-411.429-411.429zM411.429 868.571c-178.286 0-320-141.714-320-320s141.714-320 320-320 320 141.714 320 320-141.714 320-320 320zM873.143-64c-13.714 0-27.429 4.571-36.571 18.286l-233.143 278.857c-18.286 18.286-13.714 50.286 4.571 64s50.286 13.714 64-4.571l233.143-278.857c18.286-18.286 13.714-50.286-4.571-64-9.143-9.143-18.286-13.714-27.429-13.714z" />
<glyph unicode="&#xe641;" glyph-name="uniE641" horiz-adv-x="1042" d="M1009.678 473.063l-426.070 426.070c-35.804 35.804-96.671 60.867-146.797 60.867h-329.399c-60.867 0-107.413-46.545-107.413-107.413v-311.497c0-50.126 28.643-114.573 60.867-146.797l433.231-426.070c21.483-21.483 46.545-32.224 75.189-32.224s57.287 10.741 75.189 32.224l361.622 354.462c21.483 21.483 32.224 46.545 32.224 75.189s-7.161 57.287-28.643 75.189zM282.853 609.119c-50.126 0-89.51 39.385-89.51 89.51s39.385 89.51 89.51 89.51c50.126 0 89.51-39.385 89.51-89.51-3.58-50.126-42.965-89.51-89.51-89.51z" />
<glyph unicode="&#xe642;" glyph-name="uniE642" horiz-adv-x="1042" d="M572.867-64c-28.643 0-57.287 10.741-75.189 32.224l-436.811 426.070c-35.804 35.804-60.867 100.252-60.867 146.797v311.497c0 60.867 46.545 107.413 107.413 107.413h329.399c50.126 0 110.993-25.063 146.797-60.867l426.070-426.070c21.483-21.483 32.224-46.545 32.224-75.189s-10.741-57.287-32.224-75.189l-361.622-354.462c-21.483-21.483-46.545-32.224-75.189-32.224zM107.413 888.392c-21.483 0-35.804-14.322-35.804-35.804v-311.497c0-28.643 17.902-75.189 39.385-96.671l433.231-426.070c14.322-14.322 39.385-14.322 50.126 0l361.622 354.462c7.161 7.161 10.741 14.322 10.741 25.063s-3.58 17.902-10.741 25.063l-422.49 426.070c-21.483 21.483-68.028 39.385-96.671 39.385h-329.399zM279.273 573.315c-64.448 0-114.573 53.706-114.573 121.734-3.58 68.028 50.126 121.734 114.573 121.734s114.573-53.706 114.573-121.734c0-64.448-53.706-121.734-114.573-121.734zM279.273 745.175c-25.063 0-46.545-21.483-46.545-50.126s21.483-50.126 42.965-50.126 46.545 25.063 46.545 50.126-21.483 50.126-42.965 50.126z" />
<glyph unicode="&#xe643;" glyph-name="uniE643" horiz-adv-x="1479" d="M0 49.778h1479.111v-113.778h-1479.111v113.778zM0 960h1479.111v-113.778h-1479.111v113.778zM0 504.889h1479.111v-113.778h-1479.111v113.778z" />
<glyph unicode="&#xe644;" glyph-name="uniE644" horiz-adv-x="1637" d="M1246.426 215.082c52.459 2.098 109.115 14.689 161.574 44.066 0 25.18 8.393 50.361 20.984 73.443 10.492 16.787 33.574 54.557 48.262 71.344 0 0 0 0 0 0 54.557 56.656 128 132.197 151.082 199.344 6.295 14.689 20.984 58.754-23.082 86.033-23.082 14.689-65.049 29.377-115.41 37.77-111.213 20.984-308.459 25.18-421.77 18.885-90.23-6.295-174.164-12.59-253.902-16.787-14.689 27.279-37.77 62.951-79.738 102.82s-102.82 92.328-186.754 123.803c-12.59 4.197-39.869 10.492-58.754 6.295-14.689-2.098-25.18-12.59-20.984-29.377 2.098-8.393 8.393-14.689 16.787-23.082 10.492-10.492 18.885-20.984 27.279-35.672 12.59-23.082 16.787-44.066 23.082-71.344 2.098-6.295 2.098-10.492 4.197-16.787 4.197-27.279 6.295-58.754 6.295-92.328-69.246-12.59-134.295-25.18-188.852-33.574-18.885 14.689-48.262 29.377-60.852 27.279-14.689-4.197-23.082-25.18-37.77-35.672-23.082 0-41.967 4.197-50.361 14.689 0 0-18.885 18.885-37.77 58.754-46.164 81.836-115.41 230.82-134.295 214.033v0c-2.098-4.197-2.098-14.689-4.197-23.082-10.492-132.197 41.967-306.361 46.164-321.049-60.852-46.164-83.934-125.902-75.541-157.377 0 0 4.197-20.984 20.984-6.295 46.164 41.967 111.213 86.033 151.082 77.639 0 0 18.885-2.098 52.459-20.984 2.098-6.295 4.197-12.59 6.295-20.984 2.098-14.689 0-23.082 14.689-29.377 10.492-4.197 33.574-6.295 52.459-4.197 23.082-20.984 46.164-46.164 73.443-79.738 44.066-58.754 75.541-109.115 121.705-161.574-31.475-25.18-90.23-50.361-132.197-62.951-25.18-10.492-52.459-14.689-60.852-16.787 0 0-2.098 0-2.098 0-18.885-4.197-33.574-6.295-48.262-8.393-8.393-2.098-18.885-2.098-25.18-4.197-14.689-4.197-20.984-6.295-20.984-14.689 2.098-20.984 37.77-35.672 37.77-35.672 73.443-29.377 178.361-18.885 228.721-10.492 52.459 8.393 90.23 20.984 117.508 33.574 54.557-58.754 142.689-119.607 266.492-132.197 0 0 239.213-44.066 440.656 109.115 12.59 10.492 33.574 33.574 33.574 33.574s0 0 0 0c-50.361 37.77-77.639 86.033-94.426 130.098z" />
<glyph unicode="&#xe645;" glyph-name="uniE645" horiz-adv-x="893" d="M391.732 190.282c-219.919 0-391.732 171.812-391.732 384.859s171.812 384.859 391.732 384.859 391.732-171.812 391.732-384.859c-6.872-213.047-178.685-384.859-391.732-384.859zM391.732 891.275c-178.685 0-323.007-144.322-323.007-316.134s144.322-316.134 323.007-316.134c178.685 0 323.007 144.322 323.007 316.134s-151.195 316.134-323.007 316.134zM859.060-64c-6.872 0-20.617 6.872-27.49 13.745l-247.409 302.389c-13.745 13.745-6.872 34.362 6.872 48.107s34.362 6.872 48.107-6.872l247.409-302.389c13.745-13.745 6.872-34.362-6.872-48.107-6.872-6.872-13.745-6.872-20.617-6.872z" />
<glyph unicode="&#xe646;" glyph-name="uniE646" horiz-adv-x="1515" d="M526.059-64c-7.061 0-21.058 0-28.119 7.061l-492.645 492.645c-7.061 14.122-7.061 35.18 0 49.302s35.18 14.122 49.302 0l464.4-464.526 935.987 928.926c14.122 14.122 35.18 14.122 49.302 0s14.122-35.18 0-49.302l-957.171-957.045c-6.935-7.061-13.996-7.061-21.058-7.061z" />
<glyph unicode="&#xe647;" glyph-name="uniE647" d="M633.941-64c-19.541 0-48.725 19.541-48.725 48.725-0.085 292.608-243.883 536.405-536.491 536.405-29.184 0-48.725 19.541-48.725 48.811s19.541 48.725 48.725 48.725c351.147 0 633.941-282.795 633.941-633.941 0-29.184-19.541-48.725-48.725-48.725zM975.275-64c-29.269 0-48.725 19.541-48.725 48.725 0 487.595-390.059 877.739-877.739 877.739-29.269 0-48.811 19.541-48.811 48.811s19.541 48.725 48.725 48.725c536.405 0 975.275-438.869 975.275-975.275 0-29.184-29.269-48.725-48.725-48.725zM302.336 92.075c0-80.778-65.483-146.261-146.261-146.261s-146.261 65.483-146.261 146.261c0 80.778 65.483 146.261 146.261 146.261s146.261-65.483 146.261-146.261z" />
</font>
</defs>
</svg>
